# xmcd
#
# Track frame offsets: 
#        150
#        18687
#        33870
#        51685
#        65470
#        80232
#        97640
#        114040
#        129582
#        144220
#
# Disc length: 2108 seconds
#
# Revision: 0
# Processed by: cddbd v1.5.1PL0 Copyright (c) Steve Scherf et al.
# Submitted via: ExactAudioCopy v0.95b1
#
DISCID=7f083a0a
DTITLE=Doug Prescott - Chummin' In The Waters Of Love
DYEAR=1996
DGENRE=Country
TTITLE0=Chummin' In The Waters Of Love
TTITLE1=Another TV Game
TTITLE2=Ready For The Entry
TTITLE3=The Island
TTITLE4=Kingdom Come
TTITLE5=Two Trains
TTITLE6=Under The Streetlight
TTITLE7=Catch 22 Tango
TTITLE8=Jackhammer Love
TTITLE9=Whatever
EXTD=
EXTT0=
EXTT1=
EXTT2=
EXTT3=
EXTT4=
EXTT5=
EXTT6=
EXTT7=
EXTT8=
EXTT9=
PLAYORDER=
